<?xml version="1.0" standalone="no"?>
<!DOCTYPE svg PUBLIC "-//W3C//DTD SVG 20010904//EN"
 "http://www.w3.org/TR/2001/REC-SVG-20010904/DTD/svg10.dtd">
<svg version="1.0" xmlns="http://www.w3.org/2000/svg"
 width="256.000000pt" height="256.000000pt" viewBox="0 0 256.000000 256.000000"
 preserveAspectRatio="xMidYMid meet">
<metadata>
Created by potrace 1.14, written by Peter Selinger 2001-2017
</metadata>
<g transform="translate(0.000000,256.000000) scale(0.100000,-0.100000)"
fill="#000000" stroke="none">
<path d="M17 1852 c-2 -4 -3 -86 -3 -182 l1 -175 130 0 129 0 1 27 c1 15 -1
31 -4 37 -4 6 -44 11 -91 13 l-84 3 0 140 -1 140 -37 2 c-21 1 -39 -1 -41 -5z"/>
<path d="M299 1850 c-1 -6 -1 -21 -1 -35 0 -41 1 -45 18 -45 11 0 14 -5 10
-16 -3 -9 -6 -18 -6 -20 0 -2 -6 -4 -14 -4 -20 0 -29 -17 -19 -33 13 -21 67
-2 84 29 7 15 14 50 14 78 l0 51 -42 2 c-24 2 -44 -2 -44 -7z"/>
<path d="M521 1846 c-6 -7 -41 -85 -77 -172 -36 -88 -68 -164 -70 -170 -3 -6
12 -11 39 -11 43 -1 45 0 56 38 l12 39 74 0 75 0 18 -37 c15 -33 22 -38 52
-39 56 -2 57 -9 -9 141 -10 22 -35 81 -55 131 -36 88 -39 91 -71 92 -18 1 -38
-5 -44 -12z m62 -153 l17 -43 -41 0 c-29 0 -39 4 -35 13 2 6 10 29 17 50 14
42 19 40 42 -20z"/>
<path d="M730 1819 c0 -37 2 -39 33 -40 17 -1 40 -1 50 0 19 2 18 8 21 -169
l1 -115 40 0 40 0 2 110 c1 61 2 125 2 143 1 30 4 33 29 32 15 -1 39 -2 54 -1
27 1 28 6 19 72 -1 4 -66 7 -146 7 l-145 -1 0 -38z"/>
<path d="M1082 1676 l3 -181 133 -1 132 0 0 36 0 36 -86 -1 c-47 0 -90 2 -95
6 -6 3 -9 19 -7 35 l3 29 80 0 80 0 1 38 c1 21 -3 38 -10 38 -6 1 -42 2 -81 3
l-70 1 -3 32 -3 32 78 0 c43 0 86 0 96 0 13 1 17 10 17 40 l0 39 -135 0 -135
-1 2 -181z"/>
<path d="M1418 1842 c-2 -10 -4 -91 -3 -182 l0 -165 131 -1 130 -1 -1 36 -1
36 -86 3 -87 3 0 135 c0 74 -3 139 -6 144 -10 16 -73 9 -77 -8z"/>
<path d="M1734 1678 l1 -181 38 -4 c25 -2 37 0 38 9 0 19 0 299 0 329 -1 24
-5 27 -39 27 l-38 1 0 -181z"/>
<path d="M1899 1841 c-4 -50 -3 -341 1 -343 3 0 65 -2 138 -3 l133 -2 -3 36
-3 36 -93 0 -93 -1 3 36 3 35 70 0 c83 1 95 6 90 43 -2 15 -4 29 -4 32 -1 3
-36 5 -78 5 l-78 0 0 30 0 30 79 2 c44 1 86 5 93 7 7 3 13 21 13 40 l0 34
-135 0 c-117 -1 -135 -3 -136 -17z"/>
<path d="M2238 1858 c0 -2 -2 -83 -3 -181 l-3 -177 23 -6 c49 -12 60 -3 65 56
5 51 7 55 30 55 19 0 33 -13 61 -55 35 -53 38 -55 83 -57 25 -1 46 0 46 3 0 3
-16 28 -35 57 -19 28 -35 56 -35 60 0 5 14 22 30 39 24 24 30 38 30 74 0 56
-20 96 -57 114 -23 11 -229 26 -235 18z m198 -95 c16 -16 18 -41 5 -62 -5 -7
-32 -15 -64 -18 l-55 -4 -4 33 c-7 62 -2 68 54 67 27 -1 56 -9 64 -16z"/>
<path d="M1136 1425 c-14 -18 -26 -36 -26 -39 0 -15 33 -3 62 23 31 28 31 29
11 39 -18 10 -24 7 -47 -23z"/>
<path d="M2025 1331 c-8 -16 -33 -71 -56 -123 -54 -123 -79 -179 -91 -200 -7
-15 -4 -18 15 -18 19 0 28 10 43 43 10 23 22 44 26 47 4 3 47 6 95 5 l88 0 21
-44 c20 -43 64 -75 64 -47 0 7 -34 89 -76 182 -89 198 -100 211 -129 155z m98
-195 c2 -13 -132 -16 -140 -3 -2 4 -1 13 4 20 5 7 22 43 38 80 l28 68 34 -77
c19 -43 35 -82 36 -88z"/>
<path d="M2363 1346 c-45 -21 -66 -56 -59 -103 8 -47 31 -67 104 -88 75 -22
102 -40 102 -69 0 -58 -100 -82 -160 -37 -28 20 -64 19 -57 -2 6 -19 53 -48
93 -57 80 -19 152 15 167 79 14 59 -34 104 -141 131 -52 13 -79 48 -62 80 23
42 93 48 148 12 20 -13 25 -13 33 -1 14 22 11 27 -21 44 -44 23 -110 28 -147
11z"/>
<path d="M560 1170 l0 -180 24 0 23 0 -1 135 c0 74 1 135 4 135 3 0 30 -38 60
-85 30 -46 58 -83 63 -82 4 1 34 43 67 92 l61 90 -1 -90 c-3 -194 -2 -195 23
-195 l22 0 0 180 0 180 -22 0 c-18 0 -37 -22 -87 -96 l-64 -96 -62 96 c-50 77
-67 96 -86 96 l-24 0 0 -180z"/>
<path d="M1010 1253 c-1 -54 -2 -135 -3 -180 l-2 -82 60 -3 c33 -2 93 -2 133
0 63 3 72 6 72 23 0 18 -8 19 -109 19 l-109 0 1 58 2 57 85 3 c103 3 114 6
102 29 -8 14 -26 17 -98 17 l-89 1 0 58 c-1 44 3 57 15 58 8 0 57 0 108 1 83
0 92 2 92 19 0 18 -9 19 -130 19 l-130 0 0 -97z"/>
<path d="M1358 1344 c-4 -8 -3 -332 1 -357 0 -5 5 -6 9 -3 4 2 44 6 87 7 115
3 166 32 200 113 31 74 5 162 -61 213 -33 25 -46 28 -134 31 -54 2 -99 0 -102
-4z m197 -54 c44 -24 74 -89 65 -139 -15 -85 -64 -119 -163 -117 l-60 1 1 110
c0 61 1 122 1 137 1 24 5 27 39 30 49 4 81 -2 117 -22z"/>
<path d="M1753 1171 c0 -139 3 -181 14 -185 23 -9 28 26 28 194 -1 158 -2 165
-22 168 -19 3 -20 -1 -20 -177z"/>
<path d="M119 1335 c-1 -3 -2 -15 -3 -27 -1 -19 -6 -22 -29 -20 -53 7 -88 -48
-62 -99 9 -16 22 -30 30 -30 8 -1 21 -2 28 -3 6 -1 18 2 25 7 8 6 12 6 12 -1
0 -6 6 -9 14 -6 20 8 20 184 0 184 -8 0 -15 -2 -15 -5z m-14 -85 c16 -25 13
-50 -7 -61 -29 -15 -53 10 -44 45 6 26 38 36 51 16z"/>
<path d="M359 1287 c-34 -18 -32 -58 4 -75 34 -17 36 -36 2 -28 -35 9 -51 -2
-28 -19 22 -16 64 -10 81 12 18 25 15 32 -23 54 -39 23 -39 39 0 31 29 -5 34
13 7 27 -12 7 -26 6 -43 -2z"/>
<path d="M196 1268 c-33 -47 -3 -122 46 -113 63 13 75 37 16 32 -17 -1 -33 3
-35 10 -3 8 11 13 39 15 37 3 43 6 40 23 -10 54 -77 75 -106 33z m71 -24 c2
-7 -8 -10 -24 -8 -36 3 -35 2 -28 15 9 13 47 8 52 -7z"/>
<path d="M49 838 c-45 -15 -60 -81 -26 -115 18 -18 56 -24 78 -12 31 16 22 31
-14 24 -40 -8 -62 13 -53 49 7 28 31 40 55 26 17 -9 31 -5 31 10 0 15 -46 27
-71 18z"/>
<path d="M184 838 c-51 -27 -60 -84 -18 -117 33 -26 55 -26 81 -3 28 24 34 47
22 81 -12 35 -55 54 -85 39z m50 -34 c9 -8 16 -20 16 -25 0 -21 -21 -49 -37
-49 -25 0 -53 29 -46 48 16 44 40 53 67 26z"/>
<path d="M544 840 c-62 -24 -65 -105 -4 -130 22 -9 34 -9 52 1 30 15 27 12 38
47 14 52 -36 100 -86 82z m50 -42 c20 -28 20 -33 0 -52 -23 -24 -53 -20 -66 9
-9 21 -8 28 7 45 23 26 40 25 59 -2z"/>
<path d="M1189 836 c-34 -17 -52 -58 -39 -90 22 -58 116 -54 118 5 1 26 -3 29
-29 29 -16 0 -29 -4 -29 -10 0 -5 7 -10 16 -10 23 0 11 -24 -14 -28 -15 -2
-25 4 -33 22 -17 37 12 70 54 60 21 -4 28 -3 25 6 -7 21 -43 29 -69 16z"/>
<path d="M1522 834 c-30 -21 -18 -58 24 -73 43 -16 34 -35 -12 -26 -32 6 -47
-6 -24 -20 39 -24 90 -7 90 30 0 19 -9 28 -36 40 -38 16 -38 39 1 29 34 -8 40
12 6 24 -22 8 -34 7 -49 -4z"/>
<path d="M1795 840 c-58 -22 -64 -101 -10 -130 50 -27 115 31 95 85 -14 37
-52 57 -85 45z m50 -44 c13 -19 14 -29 5 -45 -13 -26 -56 -28 -68 -3 -28 54
30 98 63 48z"/>
<path d="M1941 829 c-25 -15 -31 -25 -31 -53 0 -23 7 -42 22 -56 26 -24 47
-25 74 -6 15 12 17 17 7 27 -11 11 -13 11 -13 0 0 -7 -10 -11 -26 -9 -37 4
-49 40 -24 70 16 20 22 21 39 11 20 -13 38 -2 27 16 -11 18 -46 18 -75 0z"/>
<path d="M291 833 c2 -25 46 -128 54 -127 6 0 17 20 26 44 l16 44 15 -44 c8
-24 19 -45 24 -47 6 -2 19 23 29 54 28 83 28 83 11 83 -9 0 -18 -13 -22 -35
-9 -49 -19 -51 -33 -5 -6 22 -16 40 -20 40 -15 0 -31 -26 -33 -54 -3 -38 -15
-32 -29 14 -7 22 -18 40 -26 40 -7 0 -13 -3 -12 -7z"/>
<path d="M664 773 c0 -40 5 -67 11 -66 6 1 11 11 13 23 5 27 18 25 47 -7 27
-32 45 -25 22 8 -14 19 -14 24 -1 36 35 36 5 73 -59 73 l-35 0 2 -67z m67 37
c11 0 12 -30 2 -31 -5 0 -15 -2 -25 -4 -9 -2 -18 5 -21 15 -6 23 2 32 21 25 7
-3 18 -5 23 -5z"/>
<path d="M802 773 c3 -66 20 -90 26 -38 4 33 10 32 43 -7 36 -44 49 -28 15 19
l-27 38 26 22 c28 24 31 33 13 33 -7 0 -27 -14 -45 -32 l-33 -32 6 32 c5 26 3
32 -10 32 -14 0 -16 -10 -14 -67z"/>
<path d="M937 783 c2 -85 2 -85 15 -81 8 3 13 28 13 71 1 54 -2 67 -15 67 -12
0 -15 -12 -13 -57z"/>
<path d="M1002 775 c2 -37 7 -64 13 -63 6 2 11 14 12 28 0 14 2 31 2 38 1 8
16 -6 34 -29 17 -24 37 -41 42 -38 15 6 13 121 -2 126 -8 3 -13 -11 -15 -38
l-3 -43 -29 42 c-43 63 -58 56 -54 -23z"/>
<path d="M1377 774 c-15 -37 -25 -69 -23 -71 2 -2 12 4 21 14 26 25 52 26 76
2 11 -11 23 -18 27 -15 9 10 -45 131 -60 134 -9 2 -23 -20 -41 -64z m52 8 c8
-14 6 -18 -10 -19 -21 -2 -22 -1 -13 21 8 20 11 20 23 -2z"/>
<path d="M1630 820 c-14 -26 -6 -39 37 -56 40 -17 34 -39 -8 -30 -37 7 -48
-11 -13 -24 32 -13 61 -5 74 20 11 21 -7 46 -47 61 -33 12 -18 32 18 24 24 -5
28 -4 23 9 -9 24 -71 21 -84 -4z"/>
<path d="M2052 773 c4 -85 23 -86 23 -1 0 41 -4 63 -13 66 -10 3 -12 -12 -10
-65z"/>
<path d="M2142 798 c-25 -58 -35 -98 -23 -98 6 0 15 8 20 18 13 24 52 23 76
-1 9 -10 19 -16 22 -14 8 9 -50 137 -63 137 -7 0 -22 -19 -32 -42z m42 -14 c9
-22 8 -24 -9 -24 -8 0 -15 9 -15 20 0 24 15 27 24 4z"/>
<path d="M2243 828 c2 -7 10 -13 18 -13 10 0 14 -13 15 -41 0 -23 4 -49 7 -58
12 -31 24 -8 22 44 -1 27 2 51 7 51 4 1 13 2 20 3 6 0 13 7 16 14 3 9 -12 12
-53 12 -41 0 -56 -3 -52 -12z"/>
<path d="M2379 838 c-1 -2 -2 -31 -3 -65 -2 -44 2 -64 11 -67 9 -4 13 4 14 24
4 78 0 110 -11 110 -5 0 -11 -1 -11 -2z"/>
<path d="M2439 823 c-3 -47 1 -116 5 -121 9 -8 15 1 19 29 3 19 11 25 35 27
35 4 44 21 12 23 -39 3 -43 4 -47 16 -4 11 25 25 43 22 19 -3 34 2 34 11 0 6
-22 10 -50 10 -41 0 -50 -3 -51 -17z"/>
</g>
</svg>
